<svg width="35" height="34" viewBox="0 0 35 34" fill="none" xmlns="http://www.w3.org/2000/svg">
<path d="M25.0007 2.23696L25.0052 2.14103C25.0336 1.57295 24.8424 1.04291 24.4678 0.649646C23.9679 0.124707 23.1892 -0.10282 22.3766 0.0435819L13.6281 1.61896C13.1939 1.08781 12.5782 0.776779 11.9137 0.776779C11.3575 0.776779 10.8054 0.996417 10.3593 1.39478L3.23497 7.75751C2.7004 8.23533 2.40243 8.89759 2.41891 9.57578C2.42288 9.75394 2.45179 9.92932 2.4978 10.1007C2.01942 10.4412 1.66979 10.9979 1.5569 11.6817L0.218755 19.8123L0.122271 19.8095L0.18699 20.003L0.0371665 20.9116C-0.0836833 21.6476 0.0933676 22.3593 0.521822 22.8643C0.772109 23.1594 1.095 23.3569 1.4542 23.4664C2.9768 27.1488 6.13886 33.4112 10.0376 33.4112C10.6125 33.4112 11.1811 33.2761 11.7282 33.01C14.0141 31.8965 13.8115 26.6194 13.4119 23.1764L13.4261 23.1758C14.6388 23.1344 15.8164 22.0743 16.1081 20.7617L16.2006 20.3434C16.692 20.2566 17.15 20.0619 17.5246 19.7686L20.0675 17.7744C20.4114 17.5042 20.6696 17.1552 20.8546 16.7722L21.8699 16.6473C23.0162 16.5066 23.9792 15.6923 24.2954 14.6906C26.1846 15.2252 28.8592 15.8602 30.922 15.8602C30.9226 15.8602 30.9226 15.8602 30.9231 15.8602C32.5711 15.8602 33.6352 15.4585 34.1754 14.6322C34.7838 13.7009 34.9438 12.6516 34.651 11.5132C33.7056 7.84094 27.9143 3.97912 25.0007 2.23696ZM32.751 13.7021C32.6812 13.8093 32.3418 14.1595 30.9237 14.1595C30.9231 14.1595 30.9231 14.1595 30.9231 14.1595C28.9613 14.1595 26.2679 13.4898 24.4673 12.9683L24.9048 4.17042C28.0334 6.12545 32.3254 9.30566 33.0035 11.9394C33.1744 12.6039 33.0916 13.1805 32.751 13.7021ZM22.7097 14.0267C22.7069 14.084 22.6916 14.143 22.6706 14.2032C22.5503 14.5431 22.153 14.8995 21.6627 14.9591L21.1321 15.0243C21.081 14.685 20.9698 14.3536 20.7951 14.0483L14.5673 3.17953L22.1037 1.82205L22.6785 1.71879C22.7421 1.70741 22.8045 1.70176 22.8635 1.70176C23.0259 1.70176 23.1609 1.74602 23.2347 1.82324C23.2539 1.84369 23.3124 1.90555 23.305 2.05705L23.296 2.23696L22.7444 13.3321L22.7097 14.0267ZM19.0171 16.4363L18.2413 17.0447L16.6574 18.2869L16.4741 18.4305C16.2743 18.5871 15.9894 18.6672 15.6983 18.679C15.3998 18.691 15.0979 18.6268 14.8686 18.4872C14.8317 18.4646 14.7926 18.4441 14.7596 18.4174L8.75099 13.5551L6.40437 11.6563L4.39369 10.0292C4.32499 9.97358 4.27221 9.91117 4.22914 9.84652C4.16386 9.74892 4.12414 9.64336 4.1219 9.53493C4.11736 9.35502 4.20533 9.17511 4.36989 9.02815L11.4931 2.66479C11.5788 2.5882 11.6679 2.54331 11.7576 2.51441C11.8098 2.49737 11.8626 2.47922 11.9142 2.47922C12.1009 2.47922 12.2717 2.59728 12.3937 2.81007L12.4846 2.96841L12.9805 3.8344L19.3183 14.8938C19.3773 14.9971 19.4137 15.1123 19.4358 15.232C19.4892 15.5249 19.4375 15.8461 19.2917 16.1071C19.2202 16.2348 19.1288 16.3483 19.0171 16.4363ZM14.4453 20.3946C14.312 20.9973 13.7666 21.4626 13.3682 21.4762L13.1826 21.4824L12.3223 21.512L6.88853 21.6981L2.63743 21.8434L2.0699 21.8627L2.05461 22.6515L2.05294 22.7094V22.6486V21.8627C1.95191 21.8627 1.87756 21.8309 1.82024 21.7634C1.71699 21.6419 1.67894 21.4269 1.7181 21.1885L1.79755 20.7073L1.93718 19.8595L3.23791 11.9582C3.27477 11.7324 3.36846 11.5581 3.48247 11.4815L13.6883 19.7408C13.9255 19.9326 14.1991 20.0791 14.4908 20.1886L14.4453 20.3946ZM10.9824 31.4806C10.6652 31.6349 10.3559 31.7099 10.0375 31.7099C7.68128 31.7099 5.05833 27.461 3.3286 23.522L11.6963 23.2365C12.1429 27.1489 12 30.9852 10.9824 31.4806Z" fill="#010002"/>
</svg>
