<svg width="20" height="35" viewBox="0 0 20 35" fill="none" xmlns="http://www.w3.org/2000/svg">
<path d="M20 12.5953C20 11.1338 19.0691 9.88941 17.7776 9.4379C17.9933 8.99391 18.1149 8.49481 18.1149 7.96735C18.1149 6.12603 16.638 4.628 14.8227 4.628H13.9916C13.2951 4.628 12.7097 4.09876 12.6299 3.39685L12.2436 0H9.60487C8.03444 0 6.58916 0.696992 5.63964 1.91235C5.01988 2.7056 4.65952 3.65675 4.58519 4.68316C3.05162 4.96699 1.88509 6.33117 1.88509 7.96735C1.88509 8.49488 2.00674 8.99391 2.2224 9.4379C0.930785 9.88948 0 11.1338 0 12.5953C0 13.733 0.564227 14.739 1.4233 15.3422L7.43321 35H12.5669L18.5768 15.3423C19.4358 14.7391 20 13.733 20 12.5953ZM3.29222 11.3067H9.79121V9.25593H5.17725C4.47675 9.25593 3.90686 8.67788 3.90686 7.96735C3.90686 7.25683 4.47675 6.67878 5.17725 6.67878H8.03275V4.628H6.62225C6.69403 4.09076 6.89527 3.60712 7.22415 3.18609C7.77962 2.47516 8.66956 2.05078 9.60487 2.05078H10.4416L10.6214 3.63187C10.8189 5.36888 12.2678 6.67878 13.9917 6.67878H14.8228C15.5233 6.67878 16.0931 7.25683 16.0931 7.96735C16.0931 8.67788 15.5233 9.25593 14.8228 9.25593H13.3589V11.3067H16.7078C17.4083 11.3067 17.9782 11.8848 17.9782 12.5954C17.9782 13.3059 17.4083 13.8839 16.7078 13.8839H3.29222C2.59172 13.8839 2.02184 13.3059 2.02184 12.5954C2.02184 11.8848 2.59172 11.3067 3.29222 11.3067ZM11.077 32.9492H8.92303L3.72119 15.9347H16.2787L11.077 32.9492Z" fill="black"/>
</svg>
