<svg width="50" height="20" viewBox="0 0 50 20" fill="none" xmlns="http://www.w3.org/2000/svg">
<path d="M38.8284 13.4725C39.5532 13.4725 40.1404 14.0119 40.1404 14.6768C40.1404 15.3416 39.5532 15.8811 38.8284 15.8811C38.1025 15.8811 37.5153 15.3417 37.5153 14.6768C37.5153 14.0119 38.1025 13.4725 38.8284 13.4725Z" fill="#0A191E"/>
<path d="M3.90938 4.24226L13.1355 0.851018C14.6714 0.286072 16.2894 0 17.945 0H23.6003C25.6263 0 27.6524 0.444983 29.4586 1.28785L37.8183 5.18678L43.8152 5.98871C45.2688 6.18309 46.5978 6.85152 47.5592 7.87143C48.5199 8.89055 49.0486 10.1938 49.0486 11.5407V14.7866C49.0486 15.288 48.605 15.6948 48.0584 15.6948H43.8103C43.5974 16.5785 43.1092 17.3868 42.3883 18.0316C41.4298 18.8863 40.1652 19.3576 38.8274 19.3576C37.4906 19.3576 36.226 18.8863 35.2675 18.0316C34.5456 17.3859 34.0564 16.5757 33.8445 15.6948H16.0964C15.8835 16.5785 15.3953 17.3868 14.6734 18.0307C13.7158 18.8863 12.4513 19.3576 11.1145 19.3576C9.77669 19.3576 8.51211 18.8863 7.55453 18.0316C6.83263 17.3868 6.34443 16.5784 6.13154 15.6948H1.616C1.06936 15.6948 0.625793 15.2879 0.625793 14.7866V8.69434C0.625698 6.72349 1.91496 4.97618 3.90938 4.24226ZM13.8722 2.53666L6.75035 5.15504H12.1244L14.4902 2.32961C14.2831 2.39319 14.0772 2.46224 13.8722 2.53666ZM22.6715 1.81645H17.945C17.7648 1.81645 17.5855 1.82009 17.4074 1.82825L14.6218 5.15504H22.6715V1.81645ZM28.5615 2.90722C27.3445 2.33959 26.0106 1.98542 24.652 1.86459V5.15504H33.381L28.5615 2.90722ZM43.6825 7.81062C44.0894 9.07392 45.3045 10.0221 46.776 10.1511C46.2601 8.96411 45.1045 8.05133 43.6825 7.81062ZM38.8284 17.5413C40.5533 17.5413 41.9515 16.2589 41.9515 14.6768C41.9515 13.0947 40.5533 11.8123 38.8284 11.8123C37.1034 11.8123 35.7052 13.0947 35.7052 14.6768C35.7051 16.2589 37.1033 17.5413 38.8284 17.5413ZM11.1133 17.5413C12.8383 17.5413 14.2376 16.2589 14.2376 14.6768C14.2376 13.0947 12.8383 11.8123 11.1133 11.8123C9.38836 11.8123 7.99015 13.0947 7.99015 14.6768C7.99015 16.2589 9.38836 17.5413 11.1133 17.5413ZM2.60622 13.8784H6.08595C6.50086 11.6769 8.59619 9.99581 11.1144 9.99581C13.6316 9.99581 15.7269 11.6769 16.1418 13.8784H33.7989C34.2138 11.6769 36.3102 9.99581 38.8273 9.99581C41.3455 9.99581 43.4408 11.6769 43.8557 13.8784H47.0681V11.9821C44.2627 11.9585 41.9476 10.0222 41.602 7.52819L37.438 6.97149H12.6125C12.6125 6.97149 12.6125 6.97149 12.6116 6.97149C12.6116 6.97149 12.6116 6.97149 12.6107 6.97149H6.34443V8.15394C6.34443 9.816 4.86999 11.1683 3.05876 11.1683H2.60622V13.8784ZM2.60622 9.35193H3.05876C3.77773 9.35193 4.36391 8.81431 4.36391 8.15403V6.97157H3.20233C2.82308 7.46383 2.60622 8.05957 2.60622 8.69443V9.35193Z" fill="#0A191E"/>
<path d="M11.1133 13.4725C11.8392 13.4725 12.4264 14.0119 12.4264 14.6768C12.4264 15.3416 11.8392 15.8811 11.1133 15.8811C10.3885 15.8811 9.80129 15.3417 9.80129 14.6768C9.80129 14.0119 10.3885 13.4725 11.1133 13.4725Z" fill="#0A191E"/>
<path d="M21.6028 9.51691H28.1707C28.7176 9.51691 29.1609 9.92356 29.1609 10.4251C29.1609 10.9266 28.7175 11.3333 28.1707 11.3333H21.6028C21.0559 11.3333 20.6125 10.9266 20.6125 10.4251C20.6125 9.92356 21.0559 9.51691 21.6028 9.51691Z" fill="#0A191E"/>
<path d="M38.8284 13.4725C39.5532 13.4725 40.1404 14.0119 40.1404 14.6768C40.1404 15.3416 39.5532 15.8811 38.8284 15.8811C38.1025 15.8811 37.5153 15.3417 37.5153 14.6768C37.5153 14.0119 38.1025 13.4725 38.8284 13.4725Z" fill="#0A191E"/>
<path d="M11.1133 13.4725C11.8392 13.4725 12.4264 14.0119 12.4264 14.6768C12.4264 15.3416 11.8392 15.8811 11.1133 15.8811C10.3885 15.8811 9.80129 15.3417 9.80129 14.6768C9.80129 14.0119 10.3885 13.4725 11.1133 13.4725Z" fill="#0A191E"/>
<path d="M38.8284 13.4725C39.5532 13.4725 40.1404 14.0119 40.1404 14.6768C40.1404 15.3416 39.5532 15.8811 38.8284 15.8811C38.1025 15.8811 37.5153 15.3417 37.5153 14.6768C37.5153 14.0119 38.1025 13.4725 38.8284 13.4725Z" fill="#0A191E"/>
<path d="M11.1133 13.4725C11.8392 13.4725 12.4264 14.0119 12.4264 14.6768C12.4264 15.3416 11.8392 15.8811 11.1133 15.8811C10.3885 15.8811 9.80129 15.3417 9.80129 14.6768C9.80129 14.0119 10.3885 13.4725 11.1133 13.4725Z" fill="#0A191E"/>
</svg>
